<svg width="70" height="70" viewBox="0 0 70 70" fill="none" xmlns="http://www.w3.org/2000/svg">
<path d="M34.1252 37.9166H14.5864C12.7901 37.9167 11.0939 37.0891 9.98847 35.6732C8.88301 34.2574 8.49149 32.4112 8.92714 30.6686L11.8438 19.0019C12.493 16.4051 14.8263 14.5833 17.503 14.5833L35.0002 14.5833" stroke="black" stroke-linecap="round" stroke-linejoin="round"/>
<path d="M35 55.4166H14.5833C11.3617 55.4164 8.75014 52.8049 8.75 49.5833V32.0833" stroke="black" stroke-linecap="round" stroke-linejoin="round"/>
<circle cx="48.125" cy="48.125" r="4.375" stroke="black" stroke-linecap="round" stroke-linejoin="round"/>
<path d="M43.75 17.5H52.5" stroke="black" stroke-linecap="round" stroke-linejoin="round"/>
<rect x="35" y="8.75" width="26.25" height="52.5" rx="2" stroke="black" stroke-linecap="round" stroke-linejoin="round"/>
<path d="M44.7736 36.4583L44.7722 36.4598L44.7707 36.4583L44.7722 36.4569L44.7736 36.4583V36.4583" stroke="black" stroke-linecap="round" stroke-linejoin="round"/>
<path d="M44.7736 30.6251L44.7722 30.6265L44.7707 30.6251L44.7722 30.6236L44.7736 30.6251V30.6251" stroke="black" stroke-linecap="round" stroke-linejoin="round"/>
<path d="M52.0625 36.4583L52.061 36.4598L52.0595 36.4583L52.061 36.4569L52.0625 36.4583V36.4583" stroke="black" stroke-linecap="round" stroke-linejoin="round"/>
<path d="M52.0625 30.6251L52.061 30.6265L52.0595 30.6251L52.061 30.6236L52.0625 30.6251V30.6251" stroke="black" stroke-linecap="round" stroke-linejoin="round"/>
</svg>
