<svg width="70" height="70" viewBox="0 0 70 70" fill="none" xmlns="http://www.w3.org/2000/svg">
<path fill-rule="evenodd" clip-rule="evenodd" d="M44.6324 48.1622L55.2462 57.5966C56.2374 58.4777 57.6983 58.5791 58.8018 57.8434L60.976 56.3939C62.2633 55.5357 63.1568 54.2013 63.4603 52.6843L63.8269 50.851C64.3357 48.3074 64.2726 45.6826 63.6423 43.1664L57.8458 20.0271C56.9981 16.6432 54.481 13.9264 51.1715 12.8232L49.2734 12.1905C46.7049 11.3344 43.9016 11.5336 41.4801 12.7444L40.0446 13.4621C39.6396 13.6646 39.193 13.7701 38.7402 13.7701H31.26C30.8072 13.7701 30.3606 13.6646 29.9556 13.4621L28.5201 12.7444C26.0986 11.5336 23.2952 11.3344 20.7268 12.1905L18.8286 12.8232C15.5191 13.9263 13.002 16.6431 12.1543 20.0271L6.35788 43.1665C5.72757 45.6826 5.66451 48.3075 6.17325 50.851L6.53993 52.6844C6.84336 54.2014 7.73697 55.5358 9.0242 56.3939L11.1984 57.8435C12.3019 58.5791 13.7628 58.4777 14.754 57.5966L25.3677 48.1622C25.9016 47.6877 26.5911 47.4255 27.3055 47.4255H42.6948C43.4091 47.4256 44.0986 47.6877 44.6324 48.1622Z" stroke="black" stroke-linecap="round" stroke-linejoin="round"/>
<path d="M18.9584 30.6251H27.7084" stroke="black" stroke-linecap="round" stroke-linejoin="round"/>
<path d="M23.3333 26.2501V35.0001" stroke="black" stroke-linecap="round" stroke-linejoin="round"/>
<path d="M45.9357 35.8113C45.9352 36.2138 45.6087 36.5397 45.2062 36.5396C44.8037 36.5394 44.4775 36.2132 44.4773 35.8107C44.4772 35.4082 44.8031 35.0817 45.2056 35.0812C45.3993 35.081 45.5851 35.1578 45.7221 35.2948C45.8591 35.4317 45.9359 35.6176 45.9357 35.8113" stroke="black" stroke-linecap="round" stroke-linejoin="round"/>
<path d="M45.9386 25.4409C45.9381 25.8434 45.6116 26.1694 45.2091 26.1692C44.8067 26.169 44.4804 25.8428 44.4803 25.4403C44.4801 25.0379 44.806 24.7114 45.2085 24.7109C45.4022 24.7106 45.588 24.7874 45.725 24.9244C45.862 25.0614 45.9388 25.2472 45.9386 25.4409" stroke="black" stroke-linecap="round" stroke-linejoin="round"/>
<path d="M50.3924 29.8974C50.7948 29.8979 51.1208 30.2244 51.1206 30.6269C51.1204 31.0293 50.7942 31.3556 50.3917 31.3557C49.9893 31.3559 49.6628 31.0299 49.6623 30.6275C49.662 30.4337 49.7389 30.2479 49.8759 30.1109C50.0128 29.974 50.1987 29.8971 50.3924 29.8974" stroke="black" stroke-linecap="round" stroke-linejoin="round"/>
<path d="M40.0221 29.8945C40.4246 29.8949 40.7505 30.2214 40.7504 30.6239C40.7502 31.0264 40.424 31.3526 40.0215 31.3528C39.619 31.3529 39.2925 31.027 39.292 30.6245C39.2918 30.4308 39.3686 30.245 39.5056 30.108C39.6426 29.9711 39.8284 29.8942 40.0221 29.8945" stroke="black" stroke-linecap="round" stroke-linejoin="round"/>
</svg>
