<svg width="70" height="70" viewBox="0 0 70 70" fill="none" xmlns="http://www.w3.org/2000/svg">
<path fill-rule="evenodd" clip-rule="evenodd" d="M50.9963 13.5185C51.2885 13.2313 51.4465 12.8345 51.4316 12.425C51.4167 12.0156 51.2303 11.6313 50.918 11.366C41.849 3.98891 28.8476 3.98891 19.7785 11.366C19.4663 11.6313 19.2799 12.0156 19.265 12.425C19.2501 12.8345 19.4081 13.2313 19.7003 13.5185L22.8071 16.6252C23.3391 17.1437 24.1743 17.1837 24.7534 16.7183C31.0041 11.9268 39.6927 11.9268 45.9434 16.7183C46.5225 17.1837 47.3577 17.1437 47.8896 16.6252L50.9963 13.5185Z" stroke="black" stroke-linecap="round" stroke-linejoin="round"/>
<path fill-rule="evenodd" clip-rule="evenodd" d="M11.8312 52.5949L10.0317 48.736C8.91817 46.348 8.79886 43.6154 9.70004 41.1394C10.6012 38.6635 12.4491 36.6469 14.8371 35.5333V35.5333C17.6787 34.2083 21.0564 35.4377 22.3815 38.2793L27.7797 49.8559C29.1048 52.6974 27.8754 56.0752 25.0338 57.4002V57.4002C20.061 59.7191 14.15 57.5677 11.8312 52.5949Z" stroke="black" stroke-linecap="round" stroke-linejoin="round"/>
<path fill-rule="evenodd" clip-rule="evenodd" d="M42.9173 49.8556L48.3156 38.279C49.6406 35.4374 53.0184 34.208 55.8599 35.5331V35.5331C60.8327 37.8519 62.9841 43.7629 60.6653 48.7357L58.8659 52.5946C57.7523 54.9826 55.7357 56.8305 53.2598 57.7316C50.7838 58.6328 48.0512 58.5135 45.6632 57.4V57.4C42.8216 56.0749 41.5922 52.6972 42.9173 49.8556L42.9173 49.8556Z" stroke="black" stroke-linecap="round" stroke-linejoin="round"/>
<path d="M59.051 37.8975C62.1694 27.7259 58.4504 16.6986 49.8087 10.4931C41.167 4.28762 29.5295 4.28762 20.8878 10.4931C12.2461 16.6986 8.52705 27.7259 11.6455 37.8975" stroke="black" stroke-linecap="round" stroke-linejoin="round"/>
</svg>
