<svg width="70" height="70" viewBox="0 0 70 70" fill="none" xmlns="http://www.w3.org/2000/svg">
<path fill-rule="evenodd" clip-rule="evenodd" d="M58.3336 40.8333L63.8588 51.8843C64.0612 52.2892 64.1666 52.7356 64.1667 53.1883L64.1669 54.6839C64.1948 58.2454 61.3581 61.1696 57.7973 61.2498L57.75 61.25H9.33364L9.28636 61.2498C5.71772 61.1548 2.88375 58.2171 2.91698 54.6474V53.1884C2.91702 52.7357 3.02244 52.2892 3.22489 51.8843L8.75031 40.8333V11.6667C8.75031 10.0558 10.0561 8.75 11.667 8.75H55.417C57.0278 8.75 58.3336 10.0558 58.3336 11.6667V40.8333Z" stroke="black" stroke-linecap="round" stroke-linejoin="round"/>
<path d="M64.0807 52.5001H3.00439" stroke="black" stroke-linecap="round" stroke-linejoin="round"/>
<path d="M8.75043 40.8333H58.3338" stroke="black" stroke-linecap="round" stroke-linejoin="round"/>
</svg>
