<svg width="70" height="70" viewBox="0 0 70 70" fill="none" xmlns="http://www.w3.org/2000/svg">
<path d="M40.8333 39.3749L35 34.9999V27.7083" stroke="black" stroke-linecap="round" stroke-linejoin="round"/>
<path d="M45.8503 21.2858L44.1586 11.1854C43.9223 9.77958 42.7061 8.75 41.2828 8.75H28.7236C27.2973 8.75 26.0782 9.7825 25.8448 11.1883L24.1736 21.2858" stroke="black" stroke-linecap="round" stroke-linejoin="round"/>
<path d="M47.3744 22.6256C54.2086 29.4598 54.2086 40.5402 47.3744 47.3744C40.5402 54.2086 29.4598 54.2086 22.6256 47.3744C15.7915 40.5402 15.7915 29.4598 22.6256 22.6256C29.4598 15.7915 40.5402 15.7915 47.3744 22.6256" stroke="black" stroke-linecap="round" stroke-linejoin="round"/>
<path d="M24.1736 48.7142L25.8478 58.8088C26.0782 60.2176 27.2973 61.2501 28.7236 61.2501H41.2828C42.709 61.2501 43.9253 60.2205 44.1586 58.8146L45.8503 48.7142" stroke="black" stroke-linecap="round" stroke-linejoin="round"/>
</svg>
