<svg width="70" height="70" viewBox="0 0 70 70" fill="none" xmlns="http://www.w3.org/2000/svg">
<path d="M40.8333 52.4999V58.3332C40.8333 61.5549 38.2217 64.1665 35 64.1665H14.5833C11.3617 64.1665 8.75 61.5549 8.75 58.3332V23.3332C8.75 20.1115 11.3617 17.4999 14.5833 17.4999H35C38.2217 17.4999 40.8333 20.1115 40.8333 23.3332V29.1665" stroke="black" stroke-linecap="round" stroke-linejoin="round"/>
<path d="M16.0416 17.4999V8.74986C16.0416 7.13903 17.3475 5.83319 18.9583 5.83319H30.625C32.2358 5.83319 33.5416 7.13903 33.5416 8.74986V17.4999" stroke="black" stroke-linecap="round" stroke-linejoin="round"/>
<path fill-rule="evenodd" clip-rule="evenodd" d="M29.1667 29.1666H55.4167C58.6383 29.1666 61.25 31.7783 61.25 35V46.6666C61.25 49.8883 58.6383 52.5 55.4167 52.5H29.1667C22.7233 52.5 17.5 47.2766 17.5 40.8333V40.8333C17.5 34.39 22.7233 29.1666 29.1667 29.1666Z" stroke="black" stroke-linecap="round" stroke-linejoin="round"/>
<path d="M28.4375 40.8341C28.437 41.2366 28.1105 41.5625 27.708 41.5624C27.3056 41.5622 26.9793 41.236 26.9792 40.8335C26.979 40.4311 27.3049 40.1046 27.7074 40.104C27.9011 40.1038 28.087 40.1806 28.2239 40.3176C28.3609 40.4546 28.4377 40.6404 28.4375 40.8341" stroke="black" stroke-linecap="round" stroke-linejoin="round"/>
</svg>
